<svg width="760" height="560" viewBox="0 0 760 560" fill="none" xmlns="http://www.w3.org/2000/svg">
<g filter="url(#filter0_d_6_486)">
<g clip-path="url(#clip0_6_486)">
<path d="M621.089 9.35725L35.531 177.788C17.5646 182.956 7.18938 201.71 12.3573 219.676L97.2409 514.778C102.409 532.745 121.163 543.12 139.129 537.952L724.687 369.522C742.653 364.354 753.028 345.6 747.86 327.633L662.977 32.531C657.809 14.5646 639.055 4.18939 621.089 9.35725Z" fill="url(#paint0_linear_6_486)"/>
<mask id="mask0_6_486" style="mask-type:alpha" maskUnits="userSpaceOnUse" x="11" y="8" width="739" height="532">
<path d="M621.089 9.35725L35.531 177.788C17.5646 182.956 7.18938 201.71 12.3573 219.676L97.2409 514.778C102.409 532.745 121.163 543.12 139.129 537.952L724.687 369.522C742.653 364.354 753.028 345.6 747.86 327.633L662.977 32.531C657.809 14.5646 639.055 4.18939 621.089 9.35725Z" fill="url(#paint1_linear_6_486)"/>
</mask>
<g mask="url(#mask0_6_486)">
<path d="M446.124 323.854L568.115 288.764L572.424 303.745C589.424 362.845 555.295 424.536 496.195 441.536L481.213 445.845L446.124 323.854Z" fill="#637BF5"/>
<path d="M446.124 323.854L568.115 288.764L563.806 273.783C546.806 214.683 485.115 180.554 426.015 197.553L411.034 201.863L446.124 323.854Z" fill="#5069E9"/>
<path d="M411.034 201.862L289.043 236.952L293.352 251.933C310.352 311.033 372.042 345.162 431.142 328.162L446.124 323.853L411.034 201.862Z" fill="#495ECB"/>
<path d="M411.034 201.862L289.043 236.952L284.734 221.97C267.734 162.87 301.863 101.179 360.963 84.1799L375.944 79.8707L411.034 201.862Z" fill="#3143A3"/>
<path d="M481.213 445.844L359.222 480.934L354.913 465.953C337.913 406.853 372.042 345.162 431.142 328.163L446.124 323.853L481.213 445.844Z" fill="#BAC1EB"/>
</g>
<path d="M655.685 329.381C675.555 323.666 687 302.826 681.25 282.835C675.5 262.843 654.731 251.27 634.861 256.986C614.992 262.701 603.546 283.54 609.296 303.532C615.047 323.523 635.816 335.096 655.685 329.381Z" fill="#F99600"/>
<path d="M615.212 341.023C635.081 335.307 646.527 314.468 640.777 294.477C635.027 274.485 614.258 262.912 594.388 268.627C574.519 274.343 563.073 295.182 568.823 315.174C574.573 335.165 595.342 346.738 615.212 341.023Z" fill="#EC000A"/>
<path d="M609.297 303.532C607.592 297.641 607.35 291.424 608.593 285.418C609.835 279.413 612.524 273.802 616.427 269.071C622.246 271.005 627.506 274.33 631.749 278.757C635.993 283.185 639.092 288.581 640.777 294.477C642.482 300.367 642.723 306.585 641.481 312.589C640.238 318.594 637.549 324.205 633.646 328.935C627.827 327.002 622.568 323.677 618.324 319.25C614.081 314.823 610.982 309.428 609.297 303.532V303.532Z" fill="#FF5300"/>
<path d="M607.047 365.452L605.399 365.926L603.699 360.016C603.371 358.877 602.956 358.104 602.455 357.697C601.96 357.288 601.297 357.203 600.466 357.442C599.763 357.644 599.255 358.138 598.944 358.924C598.64 359.708 598.617 360.549 598.876 361.447L600.564 367.317L598.916 367.791L597.158 361.68C596.576 359.656 595.504 358.869 593.943 359.318C593.219 359.526 592.71 360.003 592.417 360.747C592.121 361.485 592.113 362.34 592.393 363.312L594.081 369.182L592.433 369.656L589.472 359.363L591.12 358.889L591.589 360.518L591.629 360.506C592.001 359.05 592.887 358.12 594.288 357.717C594.991 357.515 595.661 357.536 596.298 357.781C596.932 358.019 597.438 358.429 597.815 359.01C598.171 357.369 599.106 356.331 600.62 355.896C602.885 355.244 604.419 356.316 605.223 359.11L607.047 365.452ZM617.531 362.437L615.882 362.911L615.42 361.303L615.38 361.314C615.017 362.753 614.139 363.674 612.745 364.074C611.72 364.369 610.838 364.329 610.099 363.954C609.366 363.577 608.871 362.94 608.613 362.042C608.06 360.119 608.87 358.674 611.045 357.707L614.006 356.388C613.503 354.639 612.544 353.968 611.131 354.374C609.891 354.731 608.893 355.475 608.138 356.606L607.652 354.918C608.479 353.983 609.552 353.326 610.872 352.947C613.291 352.251 614.869 353.183 615.605 355.743L617.531 362.437ZM614.385 357.704L612 358.76C611.267 359.087 610.746 359.444 610.436 359.83C610.125 360.21 610.068 360.745 610.267 361.435C610.411 361.938 610.707 362.299 611.155 362.519C611.608 362.729 612.132 362.749 612.728 362.578C613.546 362.342 614.137 361.864 614.503 361.142C614.873 360.412 614.932 359.607 614.68 358.73L614.385 357.704ZM619.906 361.351L619.398 359.582C620.486 359.987 621.57 360.034 622.649 359.724C624.096 359.308 624.681 358.617 624.404 357.652C624.325 357.377 624.195 357.164 624.013 357.013C623.837 356.854 623.62 356.731 623.363 356.645C623.113 356.558 622.828 356.498 622.507 356.467C622.191 356.428 621.85 356.391 621.485 356.358C620.977 356.309 620.523 356.243 620.123 356.163C619.727 356.073 619.379 355.948 619.079 355.788C618.784 355.619 618.533 355.405 618.328 355.144C618.129 354.882 617.973 354.554 617.859 354.158C617.721 353.676 617.709 353.218 617.824 352.786C617.937 352.347 618.142 351.951 618.44 351.597C618.735 351.237 619.099 350.925 619.531 350.663C619.97 350.399 620.441 350.194 620.944 350.05C621.835 349.793 622.677 349.718 623.469 349.824L623.949 351.493C623.049 351.214 622.107 351.217 621.122 351.5C620.813 351.589 620.546 351.706 620.319 351.851C620.09 351.989 619.904 352.148 619.76 352.327C619.622 352.505 619.529 352.699 619.481 352.908C619.437 353.11 619.446 353.317 619.508 353.532C619.585 353.8 619.696 354.011 619.842 354.165C619.995 354.317 620.185 354.436 620.413 354.523C620.641 354.61 620.906 354.671 621.206 354.708C621.507 354.745 621.848 354.781 622.228 354.817C622.734 354.86 623.195 354.924 623.61 355.007C624.024 355.084 624.392 355.203 624.714 355.364C625.034 355.519 625.305 355.728 625.526 355.991C625.753 356.252 625.927 356.59 626.046 357.005C626.193 357.515 626.206 357.99 626.086 358.431C625.973 358.869 625.764 359.267 625.46 359.623C625.156 359.979 624.777 360.287 624.323 360.548C623.868 360.81 623.373 361.018 622.837 361.172C621.778 361.476 620.801 361.536 619.906 361.351ZM634.127 357.554C633.8 357.88 633.318 358.135 632.681 358.318C630.879 358.837 629.689 358.091 629.11 356.081L627.358 349.989L625.589 350.498L625.184 349.091L626.953 348.582L626.231 346.069L627.726 345.063L628.602 348.108L631.195 347.362L631.6 348.769L629.007 349.515L630.675 355.315C630.873 356.005 631.132 356.464 631.452 356.691C631.771 356.919 632.202 356.954 632.745 356.798C633.16 356.679 633.486 356.462 633.722 356.147L634.127 357.554ZM643.267 349.908L636 351.998C636.357 353.136 636.919 353.932 637.688 354.386C638.457 354.839 639.358 354.918 640.39 354.621C641.549 354.288 642.504 353.599 643.256 352.556L643.702 354.104C642.986 355.021 641.884 355.693 640.397 356.121C638.943 356.539 637.666 356.402 636.567 355.71C635.466 355.01 634.672 353.813 634.185 352.118C633.724 350.516 633.801 349.083 634.417 347.818C635.037 346.544 636.021 345.713 637.368 345.326C638.715 344.938 639.882 345.074 640.869 345.733C641.857 346.392 642.574 347.496 643.019 349.044L643.267 349.908ZM641.177 348.997C640.897 348.047 640.452 347.373 639.844 346.975C639.243 346.574 638.541 346.49 637.736 346.721C636.959 346.945 636.379 347.413 635.996 348.125C635.614 348.837 635.488 349.661 635.619 350.595L641.177 348.997ZM650.019 343.754C649.667 343.616 649.22 343.625 648.677 343.781C647.973 343.984 647.479 344.485 647.194 345.285C646.916 346.083 646.942 347.055 647.271 348.201L648.78 353.448L647.132 353.922L644.171 343.63L645.82 343.156L646.43 345.276L646.47 345.265C646.496 344.474 646.693 343.808 647.06 343.267C647.425 342.719 647.905 342.36 648.502 342.188C648.931 342.065 649.272 342.017 649.527 342.046L650.019 343.754ZM661.168 349.373C660.515 350.076 659.645 350.584 658.559 350.896C657.092 351.319 655.769 351.184 654.591 350.493C653.417 349.793 652.612 348.682 652.174 347.161C651.686 345.466 651.781 343.966 652.458 342.661C653.132 341.35 654.281 340.461 655.902 339.994C656.807 339.734 657.653 339.672 658.439 339.809L658.925 341.497C658.007 341.181 657.112 341.148 656.241 341.399C655.189 341.701 654.433 342.328 653.974 343.28C653.52 344.224 653.469 345.308 653.822 346.535C654.169 347.741 654.758 348.602 655.588 349.117C656.425 349.631 657.376 349.735 658.442 349.428C659.34 349.17 660.098 348.629 660.717 347.805L661.168 349.373ZM671.165 347.009L669.516 347.484L669.054 345.875L669.014 345.887C668.651 347.326 667.773 348.246 666.379 348.647C665.354 348.942 664.472 348.902 663.733 348.527C663 348.15 662.505 347.512 662.247 346.614C661.694 344.691 662.504 343.247 664.678 342.28L667.64 340.96C667.137 339.211 666.178 338.54 664.764 338.947C663.525 339.304 662.527 340.048 661.772 341.179L661.286 339.49C662.113 338.556 663.186 337.899 664.506 337.519C666.925 336.824 668.503 337.756 669.239 340.315L671.165 347.009ZM668.019 342.277L665.634 343.333C664.901 343.66 664.38 344.017 664.07 344.403C663.759 344.783 663.702 345.318 663.901 346.008C664.045 346.511 664.341 346.872 664.789 347.091C665.241 347.302 665.766 347.322 666.362 347.15C667.18 346.915 667.771 346.437 668.137 345.715C668.507 344.984 668.566 344.18 668.314 343.302L668.019 342.277ZM677.157 335.948C676.806 335.81 676.358 335.819 675.816 335.975C675.112 336.177 674.618 336.679 674.333 337.479C674.055 338.277 674.08 339.249 674.41 340.395L675.919 345.642L674.271 346.116L671.31 335.824L672.958 335.349L673.568 337.47L673.609 337.459C673.635 336.667 673.832 336.001 674.198 335.461C674.563 334.913 675.044 334.554 675.64 334.382C676.069 334.259 676.411 334.211 676.666 334.239L677.157 335.948ZM690.212 341.531L688.564 342.005L688.061 340.256L688.02 340.267C687.638 341.814 686.65 342.817 685.055 343.275C683.761 343.647 682.594 343.486 681.553 342.792C680.516 342.089 679.769 340.943 679.313 339.355C678.823 337.653 678.86 336.166 679.423 334.894C679.985 333.622 680.98 332.781 682.408 332.37C683.822 331.963 685.01 332.224 685.973 333.151L686.014 333.14L684.181 326.767L685.829 326.293L690.212 341.531ZM687.225 337.351L686.788 335.833C686.549 335.002 686.072 334.378 685.357 333.96C684.642 333.541 683.862 333.454 683.018 333.697C682.013 333.986 681.328 334.582 680.964 335.485C680.599 336.387 680.604 337.489 680.978 338.789C681.319 339.975 681.864 340.834 682.612 341.366C683.365 341.89 684.207 342.017 685.138 341.749C686.056 341.485 686.705 340.94 687.083 340.113C687.469 339.283 687.516 338.363 687.225 337.351Z" fill="white"/>
<path d="M137.636 364.047L141.081 363.056L132.863 334.487L129.379 335.489L123.348 343.14L124.43 346.902L130.427 339.282L130.506 339.259L137.636 364.047ZM158.283 358.622C164.243 356.908 167.304 351.676 165.652 345.934C164.058 340.391 158.942 337.511 153.458 339.088C150.726 339.874 148.646 341.587 147.855 343.68L147.775 343.702L145.97 334.147L159.393 330.286L158.482 327.118L142.129 331.822L145.166 348.269L148.512 347.306C149.105 344.971 151.034 343.108 153.707 342.339C157.508 341.246 161.012 343.218 162.117 347.058C163.222 350.899 161.304 354.366 157.423 355.482C153.998 356.468 150.801 355.115 149.607 352.157L146.103 353.165C147.801 357.95 152.819 360.194 158.283 358.622ZM181.269 352.01C188.258 350 190.719 343.204 187.951 333.582C187.057 330.474 185.861 328.031 184.279 326.107C181.358 322.51 177.286 321.173 172.99 322.409C167.13 324.094 164.058 329.437 165.681 335.079C167.241 340.504 172.436 343.361 177.881 341.795C181.523 340.747 184.122 338.006 184.515 334.828C184.535 334.822 184.535 334.822 184.555 334.816L184.575 334.811C186.657 342.422 185.166 347.524 180.415 348.891C177.583 349.705 174.777 348.669 173.279 346.291L169.656 347.334C171.814 351.557 176.399 353.411 181.269 352.01ZM177.595 338.491C173.853 339.567 170.321 337.646 169.25 333.924C168.219 330.341 170.29 326.658 173.952 325.605C177.635 324.545 181.312 326.596 182.365 330.259C183.413 333.902 181.376 337.403 177.595 338.491ZM197.169 346.922L200.911 345.846L206.355 316.928L205.404 313.621L186.496 319.06L187.408 322.227L202.791 317.803L202.813 317.882L197.169 346.922Z" fill="white"/>
<path d="M274.989 325.074C280.849 323.388 283.922 318.046 282.298 312.403C280.738 306.978 275.543 304.121 270.099 305.687C266.555 306.707 263.937 309.453 263.453 312.615L263.393 312.632C261.325 304.995 262.819 299.978 267.59 298.606C270.421 297.792 273.196 298.794 274.715 301.166L278.338 300.123C276.134 295.891 271.575 294.051 266.724 295.447C259.736 297.457 257.26 304.278 260.028 313.9C260.917 316.989 262.112 319.431 263.695 321.356C266.641 324.967 270.713 326.304 274.989 325.074ZM274.038 321.917C270.376 322.971 266.688 320.881 265.634 317.218C264.586 313.575 266.603 310.08 270.385 308.992C274.166 307.904 277.633 309.822 278.71 313.564C279.746 317.167 277.681 320.87 274.038 321.917ZM302.366 316.663L305.811 315.672L304.103 309.733L308.142 308.571L307.242 305.443L303.203 306.605L297.594 287.103L292.327 288.618C288.361 300.241 286.513 306.411 285.376 311.625L286.304 314.852L300.658 310.724L302.366 316.663ZM288.906 310.631C290.024 306.022 291.76 300.357 294.944 291.081L295.003 291.064L299.758 307.595L288.928 310.71L288.906 310.631ZM315.362 298.648L318.946 297.617C323.024 296.444 326.156 297.794 327.125 301.16C327.984 304.149 325.887 307.068 322.106 308.156C318.265 309.26 315.249 307.941 314.089 305.102L310.664 306.088C312.283 310.745 317.055 312.952 323.034 311.233C328.637 309.621 332.126 304.909 330.713 299.999C329.557 295.98 326.017 294.104 321.627 295.089L321.604 295.009C324.985 293.351 326.542 290.116 325.511 286.533C324.275 282.237 319.532 280.278 314.424 281.748C309.059 283.291 306.349 287.436 307.349 292.4L310.774 291.415C310.231 288.334 311.867 285.827 315.154 284.882C318.777 283.84 321.25 285.208 322.064 288.039C322.896 290.929 321.208 293.708 317.922 294.654L314.497 295.639L315.362 298.648ZM347.286 304.257C353.246 302.542 356.307 297.31 354.655 291.569C353.061 286.025 347.945 283.145 342.461 284.723C339.729 285.509 337.649 287.222 336.858 289.314L336.778 289.337L334.973 279.781L348.396 275.92L347.485 272.752L331.132 277.456L334.169 293.903L337.515 292.941C338.108 290.605 340.037 288.743 342.71 287.974C346.511 286.88 350.015 288.852 351.12 292.693C352.225 296.534 350.307 300.001 346.426 301.117C343.001 302.102 339.804 300.75 338.61 297.792L335.106 298.8C336.804 303.585 341.822 305.828 347.286 304.257Z" fill="white"/>
<path d="M409.646 271.528L413.229 270.498C417.308 269.325 420.44 270.674 421.408 274.04C422.268 277.03 420.171 279.948 416.389 281.036C412.548 282.141 409.532 280.822 408.373 277.983L404.948 278.968C406.566 283.626 411.338 285.833 417.317 284.113C422.92 282.501 426.409 277.789 424.997 272.879C423.841 268.86 420.3 266.985 415.91 267.969L415.888 267.89C419.269 266.231 420.825 262.997 419.794 259.413C418.559 255.117 413.815 253.159 408.707 254.628C403.342 256.171 400.633 260.316 401.632 265.28L405.057 264.295C404.514 261.215 406.151 258.707 409.437 257.762C413.061 256.72 415.533 258.088 416.348 260.919C417.179 263.81 415.492 266.589 412.205 267.534L408.78 268.519L409.646 271.528ZM440.837 277.348C447.826 275.337 450.287 268.541 447.52 258.92C446.626 255.811 445.43 253.368 443.847 251.444C440.926 247.847 436.855 246.51 432.559 247.746C426.698 249.432 423.626 254.774 425.249 260.417C426.81 265.841 432.004 268.699 437.449 267.132C441.092 266.085 443.69 263.344 444.084 260.165C444.103 260.159 444.103 260.159 444.123 260.154L444.143 260.148C446.225 267.759 444.734 272.861 439.983 274.228C437.152 275.042 434.346 274.006 432.847 271.629L429.224 272.671C431.382 276.895 435.967 278.748 440.837 277.348ZM437.163 263.828C433.421 264.904 429.889 262.983 428.818 259.261C427.788 255.678 429.858 251.995 433.521 250.942C437.203 249.883 440.88 251.933 441.933 255.596C442.981 259.239 440.944 262.74 437.163 263.828ZM465.11 270.366C472.099 268.355 474.56 261.56 471.792 251.938C470.898 248.829 469.702 246.387 468.12 244.462C465.199 240.865 461.127 239.528 456.831 240.764C450.971 242.45 447.899 247.792 449.522 253.435C451.082 258.859 456.277 261.717 461.722 260.151C465.364 259.103 467.963 256.362 468.356 253.183C468.376 253.178 468.376 253.178 468.396 253.172L468.416 253.166C470.498 260.777 469.007 265.879 464.255 267.246C461.424 268.06 458.618 267.024 457.12 264.647L453.497 265.689C455.655 269.913 460.24 271.767 465.11 270.366ZM461.436 256.846C457.694 257.922 454.162 256.002 453.091 252.279C452.06 248.696 454.131 245.014 457.793 243.96C461.476 242.901 465.152 244.952 466.206 248.614C467.254 252.257 465.217 255.758 461.436 256.846ZM473.736 245.355L473.742 245.375L477.186 244.384L477.181 244.364C476.264 241.177 478.103 238.032 481.449 237.07C484.597 236.164 487.744 237.639 488.535 240.391C489.219 242.767 488.746 244.553 486.067 249.697L479.056 263.182L479.763 265.637L498.61 260.215L497.699 257.047L483.781 261.051L483.758 260.972L488.838 251.429C492.191 245.127 492.953 242.335 492.036 239.148C490.778 234.773 485.762 232.464 480.654 233.933C475.269 235.482 472.301 240.366 473.736 245.355Z" fill="white"/>
<path d="M557.699 243.733C563.757 241.991 567.093 237.344 565.715 232.553C564.696 229.009 561.398 226.785 557.445 226.979L557.423 226.9C560.246 225.016 561.432 222.059 560.578 219.09C559.325 214.734 554.553 212.677 549.208 214.214C543.902 215.741 540.899 220.056 542.14 224.372C543.006 227.381 545.627 229.264 548.988 229.326L549.011 229.405C545.574 231.315 543.962 234.952 544.987 238.515C546.359 243.287 551.66 245.47 557.699 243.733ZM556.805 240.625C552.885 241.753 549.43 240.324 548.536 237.216C547.636 234.088 549.804 231.042 553.724 229.914C557.664 228.781 561.093 230.195 561.998 233.343C562.892 236.452 560.744 239.492 556.805 240.625ZM552.824 226.786C549.478 227.749 546.578 226.461 545.781 223.689C544.978 220.897 546.745 218.245 550.09 217.283C553.436 216.321 556.336 217.609 557.145 220.42C557.942 223.192 556.15 225.829 552.824 226.786ZM573.698 238.617L577.439 237.541L582.883 208.622L581.932 205.316L563.025 210.754L563.936 213.922L579.319 209.497L579.342 209.576L573.698 238.617ZM595.871 232.239L599.613 231.163L605.057 202.244L604.106 198.938L585.199 204.376L586.11 207.544L601.493 203.119L601.516 203.198L595.871 232.239ZM618.43 211.474L622.014 210.443C626.092 209.27 629.224 210.62 630.192 213.985C631.052 216.975 628.955 219.893 625.173 220.981C621.333 222.086 618.317 220.767 617.157 217.928L613.732 218.913C615.35 223.571 620.122 225.778 626.101 224.058C631.704 222.446 635.193 217.734 633.781 212.824C632.625 208.805 629.085 206.93 624.695 207.914L624.672 207.835C628.053 206.176 629.609 202.942 628.579 199.358C627.343 195.062 622.6 193.104 617.492 194.573C612.126 196.116 609.417 200.261 610.416 205.226L613.842 204.24C613.298 201.16 614.935 198.652 618.222 197.707C621.845 196.665 624.318 198.033 625.132 200.864C625.963 203.755 624.276 206.534 620.99 207.479L617.565 208.464L618.43 211.474Z" fill="white"/>
<path d="M175.784 455.082L162.06 459.03L154.723 433.522L150.148 434.838L158.625 464.308L176.924 459.044L175.784 455.082ZM183.5 437.318C186.583 436.431 189.33 438.139 190.378 441.398L179.636 444.488C178.927 441.176 180.416 438.205 183.5 437.318ZM192.202 447.817C192.151 449.866 190.656 451.667 188.144 452.389C184.611 453.406 181.654 451.581 180.579 447.843L180.503 447.578L195.677 443.213L195.242 441.702C193.368 435.187 188.441 432.049 182.477 433.764C176.412 435.509 173.824 441.118 175.763 447.858C177.713 454.638 182.76 457.808 189.07 455.993C193.992 454.577 196.904 450.71 196.389 446.612L192.202 447.817ZM211.229 449.619C217.376 447.851 220.204 442.46 218.212 435.537C216.227 428.634 210.947 425.575 204.82 427.338C198.693 429.1 195.845 434.497 197.83 441.399C199.822 448.323 205.082 451.387 211.229 449.619ZM210.183 445.984C206.732 446.976 203.698 444.886 202.323 440.107C200.955 435.349 202.414 431.966 205.865 430.973C209.317 429.98 212.351 432.071 213.719 436.829C215.094 441.608 213.655 444.985 210.183 445.984ZM224.713 445.298L229.124 444.029L225.523 431.51C224.566 428.181 225.933 425.4 229.037 424.507C232.1 423.626 234.122 424.968 235.051 428.195L238.804 441.245L243.236 439.97L239.236 426.062C237.82 421.14 234.234 418.899 229.496 420.262C226.188 421.214 224.335 423.383 223.876 426.168L223.774 426.198L222.74 422.603L218.533 423.813L224.713 445.298ZM254.121 433.456C251.752 434.137 249.848 433.358 249.307 431.479C248.778 429.641 249.934 428.048 252.516 427.107L257.712 425.259L258.199 426.954C259.004 429.752 257.205 432.569 254.121 433.456ZM253.9 437.301C256.719 436.49 259 434.197 259.559 431.45L259.661 431.42L260.677 434.953L264.905 433.737L260.646 418.931C259.406 414.622 255.284 412.822 250.076 414.32C244.766 415.847 242.28 419.658 243.152 423.609L247.318 422.411C247.154 420.379 248.394 418.696 250.947 417.962C253.643 417.186 255.667 418.152 256.355 420.541L256.83 422.195L251.049 424.234C246.025 425.989 243.809 429.125 244.89 432.883C246 436.742 249.693 438.511 253.9 437.301ZM269.193 432.504L273.605 431.235L269.904 418.369C269.028 415.326 270.238 412.921 273.077 412.105C273.935 411.858 274.74 411.737 275.129 411.78L273.948 407.675C273.604 407.708 273.023 407.764 272.39 407.946C269.857 408.675 268.366 410.718 268.374 413.435L268.272 413.465L267.22 409.809L263.013 411.019L269.193 432.504ZM290.15 426.873C293.275 425.975 295.274 423.697 295.835 420.882L295.917 420.859L296.968 424.514L301.257 423.281L292.78 393.811L288.348 395.086L291.673 406.645L291.592 406.668C289.705 404.646 286.808 403.799 283.724 404.686C278.333 406.237 275.978 411.58 277.928 418.36C279.878 425.14 284.718 428.436 290.15 426.873ZM285.998 408.056C289.388 407.081 292.495 409.349 293.776 413.802C295.068 418.295 293.63 421.826 290.24 422.801C286.747 423.806 283.746 421.596 282.441 417.062C281.143 412.548 282.506 409.061 285.998 408.056ZM315.139 419.73C321.286 417.962 324.114 412.571 322.123 405.648C320.137 398.745 314.857 395.687 308.73 397.449C302.603 399.211 299.755 404.608 301.741 411.511C303.732 418.434 308.992 421.498 315.139 419.73ZM314.093 416.095C310.642 417.088 307.608 414.997 306.234 410.218C304.865 405.46 306.324 402.077 309.776 401.084C313.227 400.091 316.261 402.182 317.63 406.94C319.004 411.719 317.565 415.096 314.093 416.095ZM333.981 404.979C335.8 410.227 341.181 412.328 347.716 410.448C354.701 408.439 358.099 403.724 356.513 398.21C355.273 393.901 352.062 392.193 345.606 392.503L342.13 392.64C338.061 392.793 336.156 392.014 335.557 389.931C334.805 387.317 336.719 384.821 340.272 383.799C343.826 382.777 346.767 383.854 347.878 386.719L352.331 385.438C350.725 380.394 345.452 378.13 339.223 379.921C332.933 381.731 329.506 386.498 330.968 391.583C332.149 395.688 335.39 397.498 341.178 397.248L345.261 397.069C349.35 396.91 351.357 397.814 352.015 400.101C352.773 402.736 350.65 405.425 346.933 406.494C343.052 407.61 339.662 406.507 338.495 403.681L333.981 404.979ZM374.766 378.874L370.355 380.143L373.956 392.662C374.919 396.012 373.634 398.769 370.448 399.686C367.405 400.561 365.348 399.251 364.408 395.984L360.654 382.934L356.243 384.202L360.243 398.11C361.659 403.032 365.393 405.253 370.07 403.907C373.358 402.962 375.126 400.883 375.571 397.969L375.673 397.94L376.718 401.575L380.946 400.359L374.766 378.874ZM391.933 393.815C389.564 394.497 387.659 393.718 387.119 391.839C386.59 390.001 387.746 388.408 390.328 387.467L395.523 385.618L396.011 387.313C396.816 390.111 395.017 392.928 391.933 393.815ZM391.712 397.66C394.531 396.849 396.812 394.557 397.371 391.809L397.473 391.78L398.489 395.313L402.716 394.097L398.457 379.29C397.218 374.981 393.096 373.182 387.888 374.68C382.578 376.207 380.092 380.018 380.963 383.969L385.13 382.77C384.965 380.739 386.206 379.055 388.759 378.321C391.455 377.546 393.479 378.511 394.166 380.901L394.642 382.555L388.86 384.594C383.837 386.348 381.621 389.484 382.702 393.242C383.812 397.102 387.505 398.87 391.712 397.66ZM407.005 392.863L411.416 391.594L407.716 378.728C406.84 375.685 408.05 373.281 410.889 372.464C411.747 372.217 412.552 372.096 412.941 372.139L411.76 368.034C411.415 368.067 410.835 368.124 410.202 368.306C407.669 369.034 406.178 371.077 406.186 373.795L406.084 373.824L405.032 370.169L400.825 371.379L407.005 392.863ZM423.506 368.282C426.59 367.395 429.337 369.104 430.385 372.362L419.643 375.452C418.933 372.14 420.423 369.169 423.506 368.282ZM432.209 378.781C432.157 380.83 430.663 382.631 428.151 383.353C424.618 384.37 421.661 382.545 420.586 378.807L420.509 378.542L435.683 374.177L435.249 372.666C433.375 366.151 428.448 363.013 422.484 364.729C416.419 366.473 413.831 372.082 415.769 378.822C417.72 385.602 422.766 388.772 429.077 386.957C433.999 385.541 436.911 381.674 436.396 377.577L432.209 378.781ZM441.438 382.959L458.082 378.171L457.072 374.659L445.778 377.907L445.755 377.826L452.649 359.745L451.78 356.722L435.34 361.451L436.35 364.964L447.725 361.692L447.749 361.773L440.621 380.12L441.438 382.959Z" fill="white"/>
<path d="M75.2923 250.728L85.2313 247.869L74.7358 211.381L64.7968 214.24L75.2923 250.728ZM68.611 208.794C71.6063 207.932 73.2649 204.986 72.4425 202.127C71.6103 199.234 68.6495 197.653 65.6542 198.515C62.6589 199.376 60.9905 202.288 61.8227 205.182C62.6451 208.041 65.6156 209.655 68.611 208.794ZM81.6098 200.301L84.0281 208.708L78.8884 210.186L81.0423 217.675L86.182 216.196L91.6941 235.36C93.7404 242.473 97.8985 244.373 106.476 241.906C108.484 241.328 110.137 240.669 111.09 240.137L108.985 232.818C108.401 233.097 107.502 233.429 106.617 233.684C103.69 234.526 101.946 233.59 101.144 230.799L96.121 213.338L102.86 211.399L100.707 203.911L93.9671 205.849L91.5488 197.442L81.6098 200.301ZM138.497 233.175C147.687 230.531 151.267 221.836 147.889 210.093C144.501 198.316 136.824 192.895 127.634 195.539C122.426 197.037 119.12 200.789 118.355 205.689L118.151 205.748L112.698 186.789L102.759 189.648L116.886 238.764L126.689 235.944L124.888 229.681L125.092 229.623C128.324 233.3 133.153 234.712 138.497 233.175ZM126.521 204.483C131.457 203.063 135.802 206.383 137.712 213.02C139.63 219.692 137.728 224.735 132.758 226.165C127.925 227.555 123.443 224.274 121.544 217.671C119.664 211.136 121.722 205.863 126.521 204.483ZM170.503 216.192C167.133 217.161 164.397 216.106 163.614 213.383C162.869 210.796 164.5 208.521 168.132 207.182L175.687 204.492L176.451 207.147C177.587 211.096 174.825 214.949 170.503 216.192ZM169.301 224.314C173.862 223.002 177.733 219.419 178.659 214.952L178.863 214.893L180.469 220.475L190.067 217.714L182.852 192.628C180.737 185.276 173.254 182.195 163.894 184.888C154.227 187.668 149.602 194.269 151.264 201.456L160.352 198.842C160.055 196.016 161.875 193.502 165.585 192.435C169.33 191.358 172.28 192.647 173.259 196.051L173.954 198.468L164.921 201.656C155.989 204.814 151.99 210.129 153.899 216.767C155.789 223.336 162.357 226.311 169.301 224.314ZM196.501 215.864L206.44 213.005L200.418 192.072C199.057 187.34 200.943 183.26 205.402 181.978C209.861 180.695 212.89 182.772 214.261 187.537L220.429 208.981L230.368 206.122L223.603 182.602C221.145 174.059 215.116 170.265 207.015 172.595C201.398 174.21 198.316 177.972 197.678 183.057L197.474 183.116L195.604 176.614L186.005 179.375L196.501 215.864ZM240.693 179.492L240.557 179.531L232.714 152.267L222.775 155.126L236.903 204.242L246.842 201.383L243.377 189.334L245.161 185.799L259.879 197.634L271.316 194.344L250.721 177.713L260.139 158.051L248.873 161.292L240.693 179.492Z" fill="white"/>
</g>
</g>
<defs>
<filter id="filter0_d_6_486" x="-7.52719" y="-1.05272" width="775.272" height="568.364" filterUnits="userSpaceOnUse" color-interpolation-filters="sRGB">
<feFlood flood-opacity="0" result="BackgroundImageFix"/>
<feColorMatrix in="SourceAlpha" type="matrix" values="0 0 0 0 0 0 0 0 0 0 0 0 0 0 0 0 0 0 127 0" result="hardAlpha"/>
<feOffset dy="9.47447"/>
<feGaussianBlur stdDeviation="5.26359"/>
<feComposite in2="hardAlpha" operator="out"/>
<feColorMatrix type="matrix" values="0 0 0 0 0 0 0 0 0 0 0 0 0 0 0 0 0 0 0.25 0"/>
<feBlend mode="normal" in2="BackgroundImageFix" result="effect1_dropShadow_6_486"/>
<feBlend mode="normal" in="SourceGraphic" in2="effect1_dropShadow_6_486" result="shape"/>
</filter>
<linearGradient id="paint0_linear_6_486" x1="264.204" y1="218.472" x2="560.095" y2="523.078" gradientUnits="userSpaceOnUse">
<stop stop-color="#3858FB"/>
<stop offset="1" stop-color="#25C8FC"/>
</linearGradient>
<linearGradient id="paint1_linear_6_486" x1="264.204" y1="218.472" x2="560.095" y2="523.078" gradientUnits="userSpaceOnUse">
<stop stop-color="#3858FB"/>
<stop offset="1" stop-color="#25C8FC"/>
</linearGradient>
<clipPath id="clip0_6_486">
<path d="M9.68375 210.381C5.99242 197.548 13.4033 184.153 26.2364 180.461L630.383 6.68376C643.216 2.99243 656.612 10.4033 660.303 23.2364L750.534 336.928C754.225 349.761 746.814 363.157 733.981 366.848L129.835 540.626C117.001 544.317 103.606 536.906 99.9144 524.073L9.68375 210.381Z" fill="white"/>
</clipPath>
</defs>
</svg>
